{"accessors":[{"bufferView":0,"byteOffset":0,"componentType":5126,"count":38852,"max":[10.0,5.953557014465332,1.43428373336792],"min":[-4.790131723587455e-16,-4.047194480895996,0.21832998096942902],"type":"VEC3"},{"bufferView":1,"byteOffset":0,"componentType":5126,"count":38852,"normalized":false,"type":"VEC2"},{"bufferView":2,"byteOffset":0,"componentType":5125,"count":133200,"type":"SCALAR"}],"asset":{"generator":"VTK","version":"2.0"},"bufferViews":[{"buffer":0,"byteLength":466224,"byteOffset":0,"target":34962},{"buffer":1,"byteLength":310816,"byteOffset":0,"target":34962},{"buffer":2,"byteLength":532800,"byteOffset":0,"target":34963},{"buffer":3,"byteLength":261,"byteOffset":0,"target":34962}],"buffers":[{"byteLength":466224,"uri":"data:application/octet-stream;base64,"},{"byteLength":310816,"uri":"data:application/octet-stream;base64,"},{"byteLength":532800,"uri":"data:application/octet-stream;base64,"},{"byteLength":261,"uri":"data:application/octet-stream;base64,"}],"cameras":[{"perspective":{"aspectRatio":2.376836646499568,"yfov":0.5235987755982988,"zfar":44.135646724738834,"znear":14.197632549310176},"type":"perspective"}],"images":[{"bufferView":3,"mimeType":"image/png"}],"materials":[{"pbrMetallicRoughness":{"baseColorFactor":[1.0,1.0,1.0,1.0],"baseColorTexture":{"index":0,"texCoord":0},"metallicFactor":0.0,"roughnessFactor":1.0}}],"meshes":[{"name":"mesh0","primitives":[{"attributes":{"POSITION":0,"TEXCOORD_0":1},"indices":2,"material":0,"mode":4}]}],"nodes":[{"mesh":0,"name":"mesh0"},{"camera":0,"matrix":[0.5791665748180564,-0.6978362804820856,-0.4214150024102708,-0.0,0.6184877060030952,0.039375759614204156,0.7848073056985602,-0.0,-0.5310734752711243,-0.7151741572496397,0.4544082841077154,0.0,-9.56327279940247,-18.65856143189191,13.287241383018573,1.0],"name":"Camera Node"},{"children":[0,1],"name":"Renderer Node"}],"samplers":[{"magFilter":9728,"minFilter":9728,"wrapS":33071,"wrapT":33071}],"scene":0,"scenes":[{"name":"Layer 0","nodes":[2]}],"textures":[{"sampler":0,"source":0}]}